Coordinates
version=1
nRows=14
nColumns=40
inDegrees=yes

Units are S.I. units (second, meters, Newtons, ...)
Angles are in degrees.

endheader
time	pelvis_tilt	pelvis_list	pelvis_rotation	pelvis_tx	pelvis_ty	pelvis_tz	hip_flexion_r	hip_adduction_r	hip_rotation_r	knee_angle_r	knee_angle_r_beta	ankle_angle_r	subtalar_angle_r	mtp_angle_r	hip_flexion_l	hip_adduction_l	hip_rotation_l	knee_angle_l	knee_angle_l_beta	ankle_angle_l	subtalar_angle_l	mtp_angle_l	lumbar_extension	lumbar_bending	lumbar_rotation	arm_flex_r	arm_add_r	arm_rot_r	elbow_flex_r	pro_sup_r	wrist_flex_r	wrist_dev_r	arm_flex_l	arm_add_l	arm_rot_l	elbow_flex_l	pro_sup_l	wrist_flex_l	wrist_dev_l
     31.24750000	     -5.01002295	     -5.39157818	      0.39555820	      1.06225014	      0.93235782	      0.39815025	     38.80542163	     -3.64895378	     -8.23097281	     45.76985276	     45.76985276	      5.91662066	    -13.63557108	      3.10631864	     15.11883942	     -6.25253904	     -8.45895457	     21.25477885	     21.25477885	     13.39961479	     -7.55322967	     -4.54639902	    -12.27111811	      3.82976632	      1.46633898	     -7.68073964	    -14.86651845	     -8.93986032	     37.71654220	     46.71545783	      0.00000000	      0.00000000	     24.08053419	    -15.07927439	      3.47607057	     44.44323199	     46.27476780	      0.00000000	      0.00000000
     31.25957143	     -4.93242998	     -5.58884090	      0.17966877	      1.06205741	      0.93232835	      0.39872874	     38.53501878	     -3.27003486	     -8.32141472	     42.22775379	     42.22775379	      4.93613156	    -12.08560447	      1.73842765	     14.43723699	     -6.44397708	     -8.20759856	     21.13647662	     21.13647662	     13.93282524	     -7.99028969	     -3.84699677	    -12.39075453	      4.06114790	      1.40253004	     -5.67946637	    -14.26274100	    -13.19790291	     27.89721831	     47.27308686	      0.00000000	      0.00000000	     23.27223861	    -15.54012332	      2.51070575	     49.66694277	     46.48567091	      0.00000000	      0.00000000
     31.27164286	     -5.04878494	     -5.25372321	     -0.03235438	      1.06170951	      0.93152932	      0.39934019	     38.70691956	     -3.25494378	     -7.84992236	     39.17434705	     39.17434705	      4.54152015	    -10.85040896	      2.21967219	     14.10678551	     -6.14246075	     -8.36977805	     21.29283434	     21.29283434	     14.26464919	     -8.19294126	     -3.99641450	    -12.24546722	      3.74174584	      1.20912011	     -6.90464417	    -14.60398578	    -13.29402718	     27.24143702	     47.29640247	      0.00000000	      0.00000000	     23.99088423	    -16.02488503	      2.32662521	     50.19068546	     46.51623077	      0.00000000	      0.00000000
     31.28371429	     -4.95583942	     -5.48940364	     -0.26296943	      1.06186412	      0.93156778	      0.40013561	     38.15601330	     -2.86373920	     -8.42759392	     35.55082285	     35.55082285	      4.08474594	     -8.35377632	      2.61711765	     13.22607799	     -6.39303551	     -8.28157568	     20.87790664	     20.87790664	     14.57132071	     -8.43473050	     -3.89489507	    -12.36094650	      4.10091956	      2.12973532	     -8.39809739	    -14.95291116	    -13.44331100	     25.73280741	     47.35573814	      0.00000000	      0.00000000	     24.66032330	    -15.54743724	      2.24754908	     52.08636645	     46.55571284	      0.00000000	      0.00000000
     31.29578571	     -4.87911973	     -5.27679277	     -0.49047406	      1.06209558	      0.93125886	      0.40090760	     37.74619904	     -2.88349629	     -8.89000364	     32.32856859	     32.32856859	      3.69352179	     -5.89866106	      2.96932251	     12.37221484	     -6.16843863	     -8.40596187	     20.52840309	     20.52840309	     14.86599923	     -8.64453208	     -3.88124222	    -12.48577920	      3.90579424	      2.71538937	     -9.68674163	    -15.20998319	    -13.73808035	     24.25034198	     47.42833321	      0.00000000	      0.00000000	     25.04452658	    -15.43496811	      2.11184804	     54.40581448	     46.60432540	      0.00000000	      0.00000000
     31.30785714	     -4.83333602	     -5.02588987	     -0.73618180	      1.06258793	      0.93090393	      0.40184727	     37.26776699	     -2.87710356	     -9.43078654	     29.19749988	     29.19749988	      3.34201653	     -3.49990755	      3.45364509	     11.47224187	     -5.90333723	     -8.57346686	     20.06612334	     20.06612334	     15.14375993	     -8.76858575	     -3.96378616	    -12.49691704	      3.66446028	      2.96501523	    -10.68899119	    -15.38526628	    -14.15004237	     23.12704373	     47.49918933	      0.00000000	      0.00000000	     25.05987183	    -15.65514887	      1.88537097	     56.95716577	     46.66247637	      0.00000000	      0.00000000
     31.31992857	     -4.83872695	     -4.64106778	     -0.97662215	      1.06331978	      0.93031775	      0.40290771	     36.90157390	     -3.03779783	    -10.19349320	     26.51823823	     26.51823823	      3.22987096	     -0.93620776	      4.25703938	     10.51944125	     -5.48159350	     -8.76669976	     19.40455625	     19.40455625	     15.24725464	     -8.88229170	     -4.41572812	    -12.46562367	      3.21133198	      2.52283126	    -11.14679031	    -15.46163460	    -15.27457992	     22.16237986	     47.62316331	      0.00000000	      0.00000000	     23.79833214	    -16.45241677	      1.19779774	     61.81110148	     46.79293293	      0.00000000	      0.00000000
     31.33200000	     -4.70819159	     -4.45398033	     -1.19364142	      1.06432496	      0.93001281	      0.40425755	     36.16880948	     -2.85415043	    -10.90093399	     23.79728598	     23.79728598	      3.01942146	      0.80649095	      5.18364945	      9.41248641	     -5.30839869	     -9.01739473	     18.78226080	     18.78226080	     15.50368028	     -8.78825569	     -4.66545261	    -12.48358682	      3.00556005	      2.63430848	    -12.10524214	    -15.62363025	    -15.65639763	     21.79398373	     47.65774126	      0.00000000	      0.00000000	     23.76598565	    -16.57012271	      0.72698774	     63.61823953	     46.86430603	      0.00000000	      0.00000000
     31.34407143	     -4.67690389	     -4.11962017	     -1.39506839	      1.06557550	      0.92939545	      0.40560710	     35.65805259	     -2.92522216	    -11.91566040	     21.75362230	     21.75362230	      3.37049766	      2.85918817	      6.97335300	      8.29129322	     -4.94993648	     -9.28569149	     17.91874977	     17.91874977	     15.48017361	     -8.68187593	     -5.48723801	    -12.40574536	      2.62830705	      2.31401018	    -13.05187300	    -15.69471515	    -16.57853593	     22.38020199	     47.67755371	      0.00000000	      0.00000000	     22.61578622	    -16.96067939	     -0.37323214	     67.56640169	     47.02199661	      0.00000000	      0.00000000
     31.35614286	     -4.54456892	     -3.88219760	     -1.58968975	      1.06708057	      0.92888523	      0.40720639	     34.94802831	     -2.80794728	    -12.76976937	     19.97244703	     19.97244703	      3.83387331	      4.10134874	      9.13487615	      7.03681828	     -4.70411718	     -9.58500228	     17.04450576	     17.04450576	     15.43010333	     -8.64752111	     -6.34260950	    -12.39550903	      2.33935561	      2.06722911	    -13.94172771	    -15.74561163	    -17.20261945	     23.07823553	     47.63954050	      0.00000000	      0.00000000	     21.84128206	    -17.12142311	     -1.49204085	     70.42734429	     47.18076623	      0.00000000	      0.00000000
     31.36821429	     -4.45458751	     -3.58126135	     -1.75442964	      1.06890272	      0.92810010	      0.40886025	     34.29410757	     -2.81689561	    -13.73955199	     18.67464317	     18.67464317	      4.14457770	      5.22610840	     10.18193680	      5.77172564	     -4.39313154	     -9.91979593	     16.10712268	     16.10712268	     15.62477982	     -8.19607332	     -6.83477848	    -12.24568405	      2.00242287	      2.23344575	    -15.07414049	    -15.76595759	    -17.39127589	     23.65530815	     47.58544888	      0.00000000	      0.00000000	     21.33399398	    -17.05883170	     -1.96303054	     72.72485073	     47.26962978	      0.00000000	      0.00000000
     31.38028571	     -4.33174058	     -3.38335529	     -1.89181168	      1.07087842	      0.92729355	      0.41067720	     33.45406417	     -2.65514766	    -14.50989469	     17.49852841	     17.49852841	      4.20172125	      5.63171364	     10.74838008	      4.49377053	     -4.19892452	    -10.23282405	     15.24009454	     15.24009454	     15.91924173	     -7.76715699	     -7.04632872	    -12.08997439	      1.78915839	      2.43604342	    -16.00930451	    -15.75887245	    -17.45587127	     23.87697027	     47.55898312	      0.00000000	      0.00000000	     21.05473040	    -16.89602826	     -2.22746304	     74.18884265	     47.31820098	      0.00000000	      0.00000000
     31.39235714	     -4.27670779	     -3.14028600	     -1.98799678	      1.07303040	      0.92601438	      0.41251164	     32.83664248	     -2.66139344	    -15.29949612	     17.05610980	     17.05610980	      4.59024247	      5.97033429	     11.47054392	      3.33949983	     -3.99135817	    -10.63956995	     14.45609049	     14.45609049	     16.08337146	     -7.17879991	     -7.86741431	    -11.90905889	      1.51558747	      2.03587744	    -17.08061552	    -15.78637444	    -17.57530670	     25.81419740	     47.42820594	      0.00000000	      0.00000000	     19.64263758	    -17.13932492	     -3.23345592	     77.62654907	     47.46064910	      0.00000000	      0.00000000
     31.40442857	     -4.16817387	     -2.98713858	     -2.04839373	      1.07540827	      0.92475912	      0.41446757	     31.97956781	     -2.52164952	    -15.82053390	     16.60821290	     16.60821290	      4.64940011	      5.79017316	     11.60238494	      2.11634347	     -3.86294598	    -10.91116363	     13.69006349	     13.69006349	     16.43669212	     -6.67055708	     -8.07693068	    -11.68469357	      1.36610417	      2.17392591	    -17.85867888	    -15.73883730	    -17.47505002	     26.23803441	     47.37469277	      0.00000000	      0.00000000	     19.14671340	    -16.89120718	     -3.64859866	     79.09716812	     47.52185802	      0.00000000	      0.00000000
